<?xml version="1.0" encoding="UTF-8" standalone="no"?>
<svg
   xmlns:dc="http://purl.org/dc/elements/1.1/"
   xmlns:cc="http://creativecommons.org/ns#"
   xmlns:rdf="http://www.w3.org/1999/02/22-rdf-syntax-ns#"
   xmlns:svg="http://www.w3.org/2000/svg"
   xmlns="http://www.w3.org/2000/svg"
   xmlns:sodipodi="http://sodipodi.sourceforge.net/DTD/sodipodi-0.dtd"
   xmlns:inkscape="http://www.inkscape.org/namespaces/inkscape"
   width="430"
   height="280"
   viewBox="0 0 113.7708 74.083359"
   version="1.1"
   id="svg8"
   sodipodi:docname="mjf-icon.svg"
   inkscape:version="1.0.1 (3bc2e813f5, 2020-09-07)">
  <defs
     id="defs2">
    <rect
       x="114.52679"
       y="2.6458333"
       width="123.59821"
       height="49.892857"
       id="rect132" />
    <rect
       x="3.7797618"
       y="7.5595236"
       width="211.2887"
       height="58.208332"
       id="rect126" />
    <rect
       x="38.931549"
       y="-20.410713"
       width="153.45833"
       height="105.07738"
       id="rect120" />
    <rect
       x="6.0476189"
       y="5.2916665"
       width="106.58929"
       height="51.026787"
       id="rect114" />
  </defs>
  <sodipodi:namedview
     id="base"
     pagecolor="#ffffff"
     bordercolor="#666666"
     borderopacity="1.0"
     inkscape:pageopacity="0.0"
     inkscape:pageshadow="2"
     inkscape:zoom="0.67165493"
     inkscape:cx="577.99761"
     inkscape:cy="218.51682"
     inkscape:document-units="mm"
     inkscape:current-layer="layer1"
     inkscape:document-rotation="0"
     showgrid="true"
     units="px"
     inkscape:window-width="1366"
     inkscape:window-height="715"
     inkscape:window-x="-8"
     inkscape:window-y="-8"
     inkscape:window-maximized="1">
    <inkscape:grid
       type="xygrid"
       id="grid2923" />
  </sodipodi:namedview>
  <metadata
     id="metadata5">
    <rdf:RDF>
      <cc:Work
         rdf:about="">
        <dc:format>image/svg+xml</dc:format>
        <dc:type
           rdf:resource="http://purl.org/dc/dcmitype/StillImage" />
        <dc:title></dc:title>
      </cc:Work>
    </rdf:RDF>
  </metadata>
  <g
     inkscape:label="Layer 1"
     inkscape:groupmode="layer"
     id="layer1">
    <path
       style="fill:#f9f9f9;stroke-width:0.264583"
       d="M -213.42425,-24.568452 V -57.64137 h 47.49271 47.49271 v 33.072918 33.0729183 h -47.49271 -47.49271 z"
       id="path80" />
    <text
       xml:space="preserve"
       id="text112"
       style="font-style:normal;font-weight:normal;font-size:10.5833px;line-height:1.25;font-family:sans-serif;white-space:pre;shape-inside:url(#rect114);fill:#000000;fill-opacity:1;stroke:none;" />
    <text
       xml:space="preserve"
       id="text118"
       style="font-style:normal;font-weight:normal;font-size:10.5833px;line-height:1.25;font-family:sans-serif;white-space:pre;shape-inside:url(#rect120);fill:#000000;fill-opacity:1;stroke:none;" />
    <path
       style="fill:#fefefe;stroke-width:0.144294"
       d="M 10.370665,72.075032 C 4.5100156,70.211783 1.5030639,66.679436 0.44928336,60.420093 0.20088226,58.944271 0.20230386,54.441557 0.45088786,52.518549 1.5234949,44.25408 4.1091943,35.848158 10.560271,19.653754 c 2.379907,-5.974214 2.68887,-6.662728 3.39311,-7.558429 0.759887,-0.966432 1.377427,-1.504064 2.176612,-1.895081 0.462013,-0.2259268 1.12338,-1.3261843 1.589576,-2.6435346 0.176081,-0.4999631 0.370906,-0.9751157 0.431001,-1.0558893 0.364874,-0.4898933 5.471101,-2.8779969 8.297382,-3.8805034 3.7354,-1.3249781 8.726962,-1.99692615 10.69707,-1.4399779 0.382646,0.1081285 1.559662,0.6463554 2.615961,1.1960676 1.814683,0.9443628 1.993099,1.0066583 3.236222,1.1295095 1.624162,0.1605069 26.473742,0.1640402 28.099733,0.00391 0.965943,-0.095089 1.394446,-0.224645 2.381958,-0.720092 0.662342,-0.3322696 1.734868,-0.8588357 2.383664,-1.1701266 l 1.179433,-0.5659855 1.946896,0.0066 c 3.004453,0.010356 5.537227,0.4878821 9.018438,1.701104 1.764032,0.6148174 6.993393,3.0146628 7.580998,3.479109 0.289973,0.2291634 0.547148,0.6611622 0.765147,1.2852255 0.444221,1.2710999 1.180286,2.5017197 1.60536,2.6842797 0.698487,0.299934 1.412144,0.920594 2.167738,1.885353 0.69249,0.884114 1.02131,1.608555 3.19713,7.043471 6.45941,16.135654 9.36611,25.550876 10.30474,33.379757 0.23873,1.988399 0.24439,6.258384 0.008,7.691758 -0.48338,2.962461 -1.24133,4.985067 -2.57033,6.859985 -1.59857,2.255107 -3.81184,3.802897 -6.98242,4.883043 -1.66695,0.56783 -2.13935,0.555677 -3.14446,-0.08093 -1.702914,-1.07852 -2.850988,-2.062676 -7.87218,-6.748194 -2.824921,-2.636016 -5.705713,-5.261293 -6.401565,-5.833944 -4.226597,-3.477585 -5.36988,-4.200416 -7.569767,-4.785723 -1.139078,-0.30313 -1.144927,-0.303215 -21.088468,-0.348167 -20.1577,-0.04545 -21.825243,-0.01306 -23.496076,0.459538 -2.475847,0.699947 -6.157693,3.553908 -13.350176,10.348476 -2.333704,2.204476 -4.678354,4.371282 -5.210778,4.815141 -0.970351,0.809349 -3.363377,2.519977 -3.548535,2.536708 -0.05524,0.0046 -0.299763,0.02739 -0.545382,0.04945 -0.245822,0.02241 -0.915537,-0.108489 -1.488782,-0.290764 z M 73.685967,46.553336 c 1.303584,-0.232648 2.962496,-1.106273 4.074442,-2.145714 1.685638,-1.575666 2.519024,-3.449767 2.519024,-5.664312 0,-2.205325 -0.834502,-4.089698 -2.501417,-5.647805 -1.66941,-1.560564 -3.658915,-2.335381 -5.996782,-2.335381 -2.337908,0 -4.327452,0.774817 -5.996925,2.335381 -1.666812,1.558107 -2.501417,3.44248 -2.501417,5.647805 0,2.205327 0.834605,4.089698 2.501417,5.647802 2.149743,2.009654 4.757925,2.723308 7.901658,2.162224 z M 44.467871,46.0901 44.983967,45.605293 v -1.947604 c 0,-1.646947 0.03635,-1.960704 0.235606,-2.032487 0.129979,-0.04671 1.139181,-0.08488 2.243673,-0.08488 2.07785,0 2.433666,-0.09052 2.433666,-0.619335 0,-0.120872 0.06621,-0.219784 0.149881,-0.219784 0.08976,0 0.149476,-0.584261 0.149476,-1.473091 V 37.755021 L 49.68003,37.27021 49.163975,36.785394 H 47.0003 44.836766 v -2.107747 c 0,-2.184577 -0.08449,-2.507313 -0.659357,-2.507313 -0.129165,0 -0.234204,-0.06295 -0.234204,-0.139844 0,-0.08438 -0.622475,-0.139828 -1.569816,-0.139828 -1.458278,0 -1.595365,0.02364 -1.926972,0.335343 -0.195983,0.184425 -0.423324,0.357507 -0.504155,0.384614 -0.0855,0.02906 -0.163083,0.960268 -0.182782,2.251901 -0.02274,1.211451 -0.09099,2.202637 -0.160036,2.202637 -0.06661,0 -0.122464,-0.06295 -0.122464,-0.139843 0,-0.08684 -0.822337,-0.139828 -2.169281,-0.139828 -2.247166,0 -2.594757,0.08294 -2.594757,0.619333 0,0.120872 -0.06621,0.219784 -0.149679,0.219784 -0.08976,0 -0.149882,0.584264 -0.149882,1.473089 v 1.473089 l 0.515995,0.484812 0.516198,0.484815 h 2.077036 c 1.142289,0 2.166174,0.03195 2.275153,0.07122 0.15638,0.05597 0.18786,0.52142 0.154349,2.17063 -0.04651,2.19218 0.03635,2.513049 0.629421,2.513049 0.129166,0 0.234185,0.06292 0.234185,0.139858 0,0.0844 0.621927,0.139829 1.56815,0.139829 h 1.568069 z M 87.841665,32.808341 c 2.175211,-1.05663 2.636818,-3.890142 0.899695,-5.521994 -2.299665,-2.160275 -6.262507,-0.618406 -6.262507,2.436628 0,2.141763 2.072609,3.782325 4.299365,3.403059 0.346961,-0.05907 0.825384,-0.202059 1.063447,-0.3177 z M 30.065823,30.470574 c 1.303807,-0.232694 2.962536,-1.106286 4.074624,-2.145727 1.685557,-1.575664 2.519065,-3.449763 2.519065,-5.664316 0,-2.205325 -0.834665,-4.089699 -2.501436,-5.647801 -1.669432,-1.560567 -3.659099,-2.335381 -5.996905,-2.335381 -2.337806,0 -4.327513,0.774814 -5.996986,2.335381 -1.666751,1.558102 -2.501253,3.442476 -2.501253,5.647801 0,2.205333 0.834502,4.089703 2.501253,5.647807 2.149927,2.00965 4.757925,2.723312 7.901638,2.162236 z m 50.034403,-4.79459 c 2.175109,-1.056639 2.636857,-3.890149 0.899755,-5.521996 -2.299767,-2.160272 -6.262629,-0.618407 -6.262629,2.436618 0,2.141768 2.072813,3.78233 4.299405,3.403069 0.347023,-0.05907 0.825486,-0.202061 1.063469,-0.317702 z M 95.583105,25.53608 c 2.175211,-1.056634 2.636737,-3.890142 0.899675,-5.521992 -2.299645,-2.160271 -6.262508,-0.618405 -6.262508,2.43662 0,2.141771 2.07263,3.782329 4.299345,3.403063 0.347023,-0.05909 0.825384,-0.202061 1.063488,-0.317701 z m -7.592493,-6.99251 c 2.175089,-1.056633 2.636778,-3.890141 0.899655,-5.52199 -2.299767,-2.160276 -6.26263,-0.618405 -6.26263,2.436618 0,2.14177 2.072792,3.782329 4.299507,3.403068 0.346942,-0.05909 0.825344,-0.202061 1.063468,-0.317699 z"
       id="path110" />
    <text
       xml:space="preserve"
       id="text124"
       style="font-style:normal;font-weight:normal;font-size:36.286px;line-height:1.25;font-family:sans-serif;white-space:pre;shape-inside:url(#rect126);fill:#000000;fill-opacity:1;stroke:#ffffff;stroke-width:0.596295;stroke-miterlimit:4;stroke-dasharray:none;stroke-opacity:1;"
       transform="matrix(1.1598652,0,0,1.5596043,13.575705,-27.289156)"><tspan
         x="3.7792969"
         y="48.380343"><tspan
           style="font-style:normal;font-variant:normal;font-weight:normal;font-stretch:normal;font-size:36.286px;font-family:Stencil;-inkscape-font-specification:Stencil;fill:#800000;stroke:#ffffff;stroke-width:0.596295;stroke-miterlimit:4;stroke-dasharray:none;stroke-opacity:1">MJf</tspan></tspan></text>
  </g>
</svg>
